<svg xmlns="http://www.w3.org/2000/svg" viewBox="0 0 600 400" width="600" height="400">
  <rect width="600" height="400" fill="#f5f5f5"/>
  <g opacity="0.9">
    <path d="M300 70
      C 220 70 170 110 155 165
      C 110 175 85 220 100 260
      C 90 295 115 330 155 340
      C 175 365 215 375 250 365
      C 275 380 325 380 350 365
      C 385 375 425 365 445 340
      C 485 330 505 295 495 260
      C 510 220 485 175 440 165
      C 425 110 375 70 300 70 Z"
      fill="none" stroke="#222222" stroke-width="3"/>
    <path d="M300 90 C300 150 300 230 300 340" stroke="#333333" stroke-width="2" fill="none"/>
  </g>
  <!-- dense network: many nodes, many connections, glowing -->
  <g stroke="#2f6fed" stroke-width="1.5" opacity="0.55">
    <line x1="170" y1="140" x2="230" y2="170"/>
    <line x1="230" y1="170" x2="290" y2="140"/>
    <line x1="290" y1="140" x2="350" y2="170"/>
    <line x1="350" y1="170" x2="410" y2="145"/>
    <line x1="170" y1="140" x2="150" y2="200"/>
    <line x1="150" y1="200" x2="180" y2="250"/>
    <line x1="410" y1="145" x2="440" y2="200"/>
    <line x1="440" y1="200" x2="410" y2="255"/>
    <line x1="180" y1="250" x2="240" y2="290"/>
    <line x1="240" y1="290" x2="300" y2="310"/>
    <line x1="300" y1="310" x2="360" y2="290"/>
    <line x1="360" y1="290" x2="410" y2="255"/>
    <line x1="230" y1="170" x2="240" y2="290"/>
    <line x1="350" y1="170" x2="360" y2="290"/>
  </g>
  <g fill="#2f6fed">
    <circle cx="170" cy="140" r="6"/>
    <circle cx="230" cy="170" r="5"/>
    <circle cx="290" cy="140" r="5"/>
    <circle cx="350" cy="170" r="5"/>
    <circle cx="410" cy="145" r="6"/>
    <circle cx="150" cy="200" r="5"/>
    <circle cx="180" cy="250" r="5"/>
    <circle cx="440" cy="200" r="5"/>
    <circle cx="410" cy="255" r="5"/>
    <circle cx="240" cy="290" r="5"/>
    <circle cx="300" cy="310" r="6"/>
    <circle cx="360" cy="290" r="5"/>
  </g>
  <text x="300" y="35" text-anchor="middle" font-family="sans-serif" font-size="20" font-weight="700" fill="#111111">More active regions</text>
</svg>
