<svg xmlns="http://www.w3.org/2000/svg" viewBox="0 0 600 400" width="600" height="400">
  <rect width="600" height="400" fill="#111111"/>
  <g opacity="0.9">
    <path d="M300 70
      C 220 70 170 110 155 165
      C 110 175 85 220 100 260
      C 90 295 115 330 155 340
      C 175 365 215 375 250 365
      C 275 380 325 380 350 365
      C 385 375 425 365 445 340
      C 485 330 505 295 495 260
      C 510 220 485 175 440 165
      C 425 110 375 70 300 70 Z"
      fill="none" stroke="#555555" stroke-width="3"/>
    <path d="M300 90 C300 150 300 230 300 340" stroke="#3a3a3a" stroke-width="2" fill="none"/>
  </g>
  <!-- sparse network: fewer nodes, fewer connections -->
  <g stroke="#4a4a4a" stroke-width="1.5" opacity="0.7">
    <line x1="190" y1="150" x2="240" y2="190"/>
    <line x1="360" y1="180" x2="400" y2="220"/>
    <line x1="230" y1="280" x2="270" y2="300"/>
  </g>
  <g fill="#8a8a8a">
    <circle cx="190" cy="150" r="5"/>
    <circle cx="240" cy="190" r="4"/>
    <circle cx="360" cy="180" r="5"/>
    <circle cx="400" cy="220" r="4"/>
    <circle cx="230" cy="280" r="5"/>
    <circle cx="270" cy="300" r="4"/>
  </g>
  <text x="300" y="35" text-anchor="middle" font-family="sans-serif" font-size="20" font-weight="700" fill="#e5e5e5">Fewer active regions</text>
</svg>
