<svg xmlns="http://www.w3.org/2000/svg" viewBox="0 0 1600 1000" width="1600" height="1000" preserveAspectRatio="xMidYMid slice">
  <defs>
    <linearGradient id="bg" x1="0" y1="0" x2="1" y2="1">
      <stop offset="0%" stop-color="#0a0a0a"/>
      <stop offset="55%" stop-color="#161616"/>
      <stop offset="100%" stop-color="#0a0a0a"/>
    </linearGradient>
    <radialGradient id="glow" cx="70%" cy="30%" r="60%">
      <stop offset="0%" stop-color="#2f6fed" stop-opacity="0.18"/>
      <stop offset="100%" stop-color="#2f6fed" stop-opacity="0"/>
    </radialGradient>
  </defs>
  <rect width="1600" height="1000" fill="url(#bg)"/>
  <rect width="1600" height="1000" fill="url(#glow)"/>
  <g stroke="#333333" stroke-width="1.2" opacity="0.6">
    <line x1="200" y1="180" x2="360" y2="260"/>
    <line x1="360" y1="260" x2="520" y2="200"/>
    <line x1="520" y1="200" x2="700" y2="290"/>
    <line x1="700" y1="290" x2="880" y2="220"/>
    <line x1="880" y1="220" x2="1040" y2="300"/>
    <line x1="1040" y1="300" x2="1220" y2="240"/>
    <line x1="1220" y1="240" x2="1380" y2="320"/>
    <line x1="360" y1="260" x2="330" y2="420"/>
    <line x1="700" y1="290" x2="720" y2="460"/>
    <line x1="1040" y1="300" x2="1060" y2="480"/>
    <line x1="330" y1="420" x2="500" y2="500"/>
    <line x1="720" y1="460" x2="880" y2="540"/>
    <line x1="1060" y1="480" x2="1240" y2="560"/>
    <line x1="500" y1="500" x2="720" y2="460"/>
    <line x1="880" y1="540" x2="1060" y2="480"/>
  </g>
  <g fill="#555555">
    <circle cx="200" cy="180" r="4"/>
    <circle cx="360" cy="260" r="5"/>
    <circle cx="520" cy="200" r="4"/>
    <circle cx="700" cy="290" r="5"/>
    <circle cx="880" cy="220" r="4"/>
    <circle cx="1040" cy="300" r="5"/>
    <circle cx="1220" cy="240" r="4"/>
    <circle cx="1380" cy="320" r="5"/>
    <circle cx="330" cy="420" r="4"/>
    <circle cx="720" cy="460" r="5"/>
    <circle cx="1060" cy="480" r="4"/>
    <circle cx="500" cy="500" r="4"/>
    <circle cx="880" cy="540" r="4"/>
    <circle cx="1240" cy="560" r="4"/>
  </g>
</svg>
